<svg aria-hidden="true" style="position: absolute; width: 0; height: 0; overflow: hidden;" version="1.1" xmlns="http://www.w3.org/2000/svg" xmlns:xlink="http://www.w3.org/1999/xlink">
<defs>
<symbol id="icon-x" viewBox="-9 -9 50 50">
<path stroke-linejoin="round" stroke-linecap="round" stroke-miterlimit="4" stroke-width="5.3333" d="M28.444 3.556l-24.889 24.889M3.556 3.556l24.889 24.889"></path>
</symbol>
<symbol id="icon-shopping-bag" viewBox="0 0 25 32">
<path d="M22.815 8.593h-4.444v-1.481c0-1.572-0.624-3.079-1.736-4.19s-2.619-1.736-4.19-1.736c-1.572 0-3.079 0.624-4.19 1.736s-1.736 2.619-1.736 4.19v1.481h-4.444c-0.393 0-0.77 0.156-1.048 0.434s-0.434 0.655-0.434 1.048v16.296c0 1.179 0.468 2.309 1.302 3.143s1.964 1.302 3.143 1.302h14.815c1.179 0 2.309-0.468 3.143-1.302s1.302-1.964 1.302-3.143v-16.296c0-0.393-0.156-0.77-0.434-1.048s-0.655-0.434-1.048-0.434zM9.481 7.111c0-0.786 0.312-1.539 0.868-2.095s1.309-0.868 2.095-0.868c0.786 0 1.539 0.312 2.095 0.868s0.868 1.309 0.868 2.095v1.481h-5.926v-1.481zM21.333 26.37c0 0.393-0.156 0.77-0.434 1.047s-0.655 0.434-1.047 0.434h-14.815c-0.393 0-0.77-0.156-1.048-0.434s-0.434-0.655-0.434-1.047v-14.815h2.963v1.481c0 0.393 0.156 0.77 0.434 1.048s0.655 0.434 1.048 0.434c0.393 0 0.77-0.156 1.048-0.434s0.434-0.655 0.434-1.048v-1.481h5.926v1.481c0 0.393 0.156 0.77 0.434 1.048s0.655 0.434 1.048 0.434c0.393 0 0.77-0.156 1.047-0.434s0.434-0.655 0.434-1.048v-1.481h2.963v14.815z"></path>
</symbol>
<symbol id="icon-logo" viewBox="0 0 32 32">
<path fill="#f6f6f6" style="fill: var(--color1, #f6f6f6)" d="M0 0l16.343 16.171 15.657 15.829v-32h-32z"></path>
<path fill="#f6f6f6" style="fill: var(--color1, #f6f6f6)" d="M4.457 4.229l11.943 11.829 11.257 11.486h-23.2v-23.314z"></path>
<path fill="#4f2ee8" style="fill: var(--color2, #4f2ee8)" d="M27.733 27.618l-11.943-11.829-11.257-11.486h23.2v23.314z"></path>
<path fill="#4f2ee8" style="fill: var(--color2, #4f2ee8)" d="M9.257 9.029l13.6 13.6h-13.6v-13.6z"></path>
<path fill="#f6f6f6" style="fill: var(--color1, #f6f6f6)" d="M9.257 9.029l13.6 13.6v-13.6h-13.6z"></path>
</symbol>
<symbol id="icon-Bookshelf" viewBox="0 0 176 32">
<path d="M22.176 8.533c0-4.731-3.497-7.406-9.545-7.406h-12.631v29.417h13.33c6.089 0 9.998-2.921 9.998-8.599 0-4.402-2.633-6.665-5.719-7.2v-0.082c2.427-0.823 4.567-2.51 4.567-6.13zM4.896 13.305v-8.023h7.858c2.921 0 4.526 1.44 4.526 4.032s-1.317 3.991-4.814 3.991h-7.57zM4.896 16.967h8.599c3.086 0 4.937 1.687 4.937 4.69 0 2.757-1.275 4.731-5.472 4.731h-8.064v-9.422z"></path>
<path d="M35.89 31.161c-6.583 0-10.574-4.567-10.574-11.109s3.991-11.109 10.574-11.109c6.583 0 10.574 4.567 10.574 11.109s-3.991 11.109-10.574 11.109zM35.89 27.623c4.114 0 6.254-3.25 6.254-7.57 0-4.361-2.139-7.57-6.254-7.57s-6.254 3.209-6.254 7.57c0 4.32 2.139 7.57 6.254 7.57z"></path>
<path d="M58.912 31.161c-6.583 0-10.574-4.567-10.574-11.109s3.991-11.109 10.574-11.109c6.583 0 10.574 4.567 10.574 11.109s-3.991 11.109-10.574 11.109zM58.912 27.623c4.114 0 6.254-3.25 6.254-7.57 0-4.361-2.139-7.57-6.254-7.57s-6.254 3.209-6.254 7.57c0 4.32 2.139 7.57 6.254 7.57z"></path>
<path d="M72.472 1.127v29.417h4.32v-7.611l2.921-2.757 6.624 10.368h5.184l-8.846-13.207 7.982-7.817h-5.307l-8.558 8.434v-16.827h-4.32z"></path>
<path d="M101.935 17.831c-3.045-0.699-5.39-0.864-5.39-3.003 0-1.481 1.399-2.469 3.991-2.469 3.374 0 4.197 1.687 4.485 3.333h4.197c-0.288-3.662-3.003-6.747-8.722-6.747-5.266 0-8.311 2.757-8.311 6.213 0 4.773 4.526 5.431 7.858 6.213 3.086 0.741 5.595 0.946 5.595 3.579 0 1.317-1.275 2.798-4.279 2.798-4.443 0-5.431-1.934-5.637-4.197h-4.197c0.206 4.443 3.127 7.611 9.915 7.611 5.102 0 8.558-2.51 8.558-6.542 0-5.019-4.197-5.883-8.064-6.789z"></path>
<path d="M124.123 8.944c-3.538 0-5.719 1.646-6.83 3.291h-0.082v-11.109h-4.32v29.417h4.32v-12.795c0-3.127 2.263-5.143 5.431-5.143 3.003 0 4.197 1.81 4.197 4.649v13.289h4.361v-14.523c0-4.814-3.086-7.077-7.077-7.077z"></path>
<path d="M144.448 27.623c-3.826 0-6.089-2.921-6.089-6.459h16.128c0-7.488-3.333-12.219-10.121-12.219-6.336 0-10.327 4.279-10.327 11.109 0 6.583 3.991 11.109 10.533 11.109 5.39 0 8.517-3.045 9.586-7.035h-4.32c-0.37 1.275-1.81 3.497-5.39 3.497zM144.366 12.359c3.497 0 5.801 2.345 5.801 5.595h-11.808c0-3.25 2.51-5.595 6.007-5.595z"></path>
<path d="M157.531 1.127v29.417h4.361v-29.417h-4.361z"></path>
<path d="M176.003 4.665v-3.538c-0.864-0.165-1.81-0.288-2.88-0.288-3.456 0-5.349 1.563-5.349 6.007v2.674h-3.003v3.538h3.003v17.486h4.361v-17.486h3.867v-3.538h-3.867v-2.304c0-2.386 1.070-2.674 3.867-2.551z"></path>
</symbol>
<symbol id="icon-UA_Herb" viewBox="0 0 20 32">
<path d="M9.005 30.888c-1.738-1.262-2.991-3.156-3.414-5.351h-5.591v-23.117c2.991 1.443 5.153 4.599 5.388 7.876l0.846 6.493-0.407-0.045c-0.893 0-1.676 0.812-1.676 1.608 0 0.752 0.595 1.383 1.378 1.548l1.018 0.226c1.676-3.051 2.631-6.042 2.631-8.973 0-2.645-0.36-5.291-0.423-7.996 0-1.202 0.486-2.3 1.253-3.156 0.783 0.857 1.253 1.954 1.253 3.156 0 2.705-0.423 5.351-0.423 7.996 0 2.931 0.955 5.922 2.631 8.973l1.018-0.226c0.783-0.165 1.378-0.812 1.378-1.548 0-0.812-0.783-1.608-1.676-1.608l-0.423 0.060 0.846-6.493c0.423-3.277 2.396-6.448 5.388-7.876v23.117h-5.576c-0.423 2.179-1.613 4.148-3.414 5.351-0.423 0.286-0.783 0.631-1.018 1.097-0.219-0.466-0.579-0.812-0.987-1.112zM2.647 17.556c0.235-0.857 0.893-1.608 1.738-2.074l-0.658-5.351c-0.235-1.668-0.955-3.156-2.036-4.374v11.784h0.955v0.015zM5.466 23.929c0-0.812 0.125-1.548 0.298-2.3l-0.783-0.18c-1.143-0.346-2.036-1.203-2.334-2.3h-0.955v4.78h3.774zM9.178 23.929c0-0.977-0.783-1.834-1.801-1.954-0.172 0.631-0.298 1.263-0.298 1.954h2.099zM9.178 25.552h-1.864c0.298 1.263 0.955 2.42 1.864 3.397v-3.397zM11.809 20.547c-0.72-1.262-1.378-2.585-1.801-3.968-0.423 1.383-1.081 2.706-1.801 3.968 0.72 0.165 1.316 0.631 1.801 1.157 0.486-0.526 1.081-0.992 1.801-1.157zM12.952 23.929c0-0.691-0.125-1.323-0.297-1.954-1.018 0.12-1.801 0.977-1.801 1.954h2.099zM12.717 25.552h-1.864v3.397c0.908-0.992 1.566-2.134 1.864-3.397zM18.34 23.929v-4.78h-0.955c-0.298 1.097-1.206 1.954-2.334 2.3l-0.783 0.18c0.172 0.752 0.298 1.488 0.298 2.3h3.774zM18.34 17.556v-11.799c-1.081 1.202-1.864 2.706-2.036 4.374l-0.658 5.351c0.846 0.466 1.504 1.203 1.739 2.074h0.955z"></path>
</symbol>
<symbol id="icon-support-down" viewBox="0 0 56 32">
<path d="M25.395 21.134c0.341 0.344 0.746 0.616 1.193 0.803s0.926 0.282 1.41 0.282 0.963-0.096 1.41-0.282c0.447-0.186 0.852-0.459 1.193-0.803l16.794-16.83c0.341-0.344 0.746-0.616 1.193-0.803s0.926-0.282 1.41-0.282c0.484 0 0.963 0.096 1.41 0.282s0.852 0.459 1.193 0.803c0.683 0.687 1.066 1.616 1.066 2.585s-0.383 1.898-1.066 2.585l-16.83 16.83c-2.063 2.060-4.858 3.217-7.773 3.217s-5.711-1.157-7.773-3.217l-16.83-16.83c-0.677-0.683-1.059-1.605-1.063-2.567-0.003-0.483 0.090-0.961 0.272-1.408s0.451-0.853 0.791-1.196c0.341-0.344 0.746-0.616 1.193-0.803s0.926-0.282 1.41-0.282 0.963 0.096 1.41 0.282c0.447 0.186 0.852 0.459 1.193 0.803l16.793 16.83z"></path>
</symbol>
<symbol id="icon-close" viewBox="0 0 32 32">
   <path style="" stroke-linejoin="round" stroke-linecap="round" stroke-miterlimit="4" stroke-width="3.4286"
                d="M24 8l-16 16M8 8l16 16"></path>
</symbol>
<symbol xmlns="http://www.w3.org/2000/svg" id="icon-amazon" viewBox="0 0 64 32">
<path d="M38.42 21.708c-3.093 2.284-7.591 3.504-11.459 3.504-5.423 0-10.306-2.005-13.999-5.342-0.29-0.262-0.030-0.62 0.318-0.416 3.986 2.32 8.915 3.715 14.005 3.715 3.434 0 7.211-0.71 10.684-2.185 0.525-0.223 0.963 0.343 0.45 0.724zM39.709 20.235c-0.395-0.507-2.613-0.239-3.617-0.121-0.304 0.037-0.35-0.228-0.077-0.418 1.771-1.247 4.677-0.887 5.017-0.469s-0.088 3.333-1.753 4.724c-0.256 0.213-0.499 0.1-0.386-0.183 0.373-0.933 1.212-3.025 0.815-3.533z"></path>
<path d="M36.166 10.894c0 0.181 0.14 0.304 0.314 0.304h2.829l-3.257 4.671c-0.197 0.3-0.199 0.636-0.199 0.834v1.228c0 0.176 0.197 0.381 0.386 0.278 1.845-0.98 4.062-0.884 5.732-0.009 0.205 0.107 0.4-0.1 0.4-0.276v-1.293c-0.021-0.174-0.075-0.351-0.288-0.471-0.947-0.534-2.049-0.69-3.094-0.664l2.811-4.014c0.259-0.36 0.406-0.588 0.409-0.762v-1.037c0-0.181-0.14-0.307-0.314-0.307h-5.425c-0.003-0-0.006-0-0.009-0-0.165 0-0.299 0.134-0.299 0.299 0 0.003 0 0.006 0 0.008v1.212zM16.361 18.451c0.176 0 0.318-0.137 0.318-0.307v-4.491c0-0.98-0.046-2.336 1.14-2.336 1.173 0 1.017 1.391 1.017 2.336l0.002 4.491c0 0.163 0.13 0.295 0.297 0.307h1.653c0.176 0 0.318-0.137 0.318-0.307v-4.491c0-0.481-0.017-1.195 0.153-1.623s0.587-0.694 0.987-0.694c0.478 0 0.848 0.161 0.971 0.729 0.078 0.339 0.046 1.23 0.046 1.588v4.496c0 0.163 0.137 0.295 0.297 0.307h1.653c0.176 0 0.318-0.137 0.318-0.307l0.004-5.347c0-0.908 0.107-1.943-0.416-2.656-0.462-0.641-1.219-0.926-1.91-0.926-0.973 0-1.88 0.499-2.28 1.57-0.465-1.070-1.11-1.57-2.143-1.57-1.017 0-1.771 0.499-2.173 1.57h-0.030v-1.107c-0.012-0.153-0.14-0.276-0.3-0.283h-1.539c-0.176 0-0.318 0.134-0.318 0.304v8.471c0.012 0.151 0.137 0.269 0.295 0.281h1.65zM46.878 9.227c2.449 0 3.775 2.103 3.775 4.778 0 2.584-1.465 4.634-3.775 4.634-2.4 0-3.715-2.103-3.715-4.724 0-2.637 1.326-4.693 3.715-4.693zM46.892 10.95c-1.216 0-1.293 1.658-1.293 2.691s-0.016 3.245 1.279 3.245c1.279 0 1.34-1.783 1.34-2.869 0-0.715-0.030-1.57-0.245-2.247-0.186-0.59-0.555-0.82-1.079-0.82zM53.823 18.457c0.177 0 0.321-0.137 0.323-0.307v-4.562c0-0.571 0.030-1.087 0.262-1.604 0.189-0.408 0.558-0.677 0.96-0.677 1.14 0 1.033 1.356 1.033 2.283v4.601c0.016 0.144 0.141 0.255 0.292 0.267h1.652c0.162 0 0.299-0.117 0.318-0.267v-5.333c0-0.82 0-1.96-0.427-2.637-0.465-0.732-1.18-0.998-1.927-0.998-1.14 0-1.788 0.553-2.25 1.711h-0.030v-1.296c-0.033-0.132-0.151-0.23-0.295-0.237h-1.531c-0.167 0-0.304 0.121-0.318 0.276l0.002 8.474c0 0.163 0.137 0.295 0.297 0.307h1.644zM31.835 14.403v-0.357c-1.195 0-2.456 0.255-2.456 1.662 0 0.713 0.372 1.196 1.005 1.196 0.462 0 0.88-0.286 1.142-0.75 0.325-0.577 0.309-1.107 0.309-1.75zM33.499 18.427c-0.109 0.098-0.267 0.105-0.389 0.039-0.548-0.455-0.647-0.667-0.947-1.1-0.906 0.924-1.548 1.2-2.721 1.2-1.39 0-2.47-0.857-2.47-2.572 0-1.34 0.724-2.252 1.76-2.698 0.896-0.395 2.147-0.464 3.104-0.573v-0.213c0-0.393 0.030-0.857-0.203-1.196-0.199-0.304-0.585-0.429-0.926-0.429-0.629 0-1.189 0.323-1.326 0.992-0.028 0.149-0.137 0.295-0.288 0.302l-1.6-0.172c-0.134-0.030-0.285-0.139-0.245-0.347 0.367-1.941 2.123-2.526 3.691-2.526 0.803 0 1.853 0.213 2.486 0.821 0.803 0.75 0.726 1.75 0.726 2.839v2.572c0 0.773 0.32 1.112 0.622 1.531 0.105 0.149 0.128 0.327-0.007 0.439l-1.262 1.101-0.002-0.005zM10.196 14.409v-0.357c-1.193 0-2.453 0.255-2.453 1.662 0 0.713 0.369 1.196 1.003 1.196 0.465 0 0.88-0.286 1.142-0.75 0.325-0.577 0.309-1.107 0.309-1.75zM11.86 18.432c-0.109 0.098-0.267 0.105-0.389 0.039-0.548-0.455-0.64-0.667-0.947-1.1-0.906 0.924-1.547 1.2-2.721 1.2-1.388 0.001-2.469-0.856-2.469-2.571 0-1.34 0.726-2.252 1.76-2.698 0.896-0.395 2.147-0.464 3.104-0.573v-0.213c0-0.393 0.030-0.857-0.199-1.196-0.203-0.304-0.587-0.429-0.926-0.429-0.629 0-1.191 0.323-1.333 0.992-0.028 0.149-0.137 0.295-0.285 0.302l-1.602-0.172c-0.134-0.030-0.283-0.139-0.245-0.347 0.369-1.941 2.123-2.526 3.691-2.526 0.803 0 1.853 0.213 2.486 0.821 0.803 0.75 0.726 1.75 0.726 2.839v2.572c0 0.773 0.32 1.112 0.622 1.531 0.107 0.149 0.13 0.327-0.005 0.439l-1.259 1.094-0.005-0.005z"></path>
</symbol>
<symbol xmlns="http://www.w3.org/2000/svg" id="icon-ibooks" viewBox="0 0 32 32">
<path fill="#FB8C00" style="fill: var(--color1, #FB8C00)" d="M8.722 28h14.556c2.608 0 4.722-2.114 4.722-4.722v-14.556c0-2.608-2.114-4.722-4.722-4.722h-14.556c-2.608 0-4.722 2.114-4.722 4.722v14.556c0 2.608 2.114 4.722 4.722 4.722z"></path>
<path fill="#fff" style="fill: var(--color2, #fff)" d="M15.333 22.667c-1.565-2.903-5.333-3.333-8-0.667v-10.667c2.667-2.667 6-2 8 0v11.333z"></path>
<path fill="#fff" style="fill: var(--color2, #fff)" d="M16.667 22.667c1.565-2.903 5.333-3.333 8-0.667v-10.667c-2.667-2.667-6-2-8 0v11.333z"></path>
</symbol>
<symbol id="icon-trash" viewBox="0 0 32 32">
    <path fill="none" stroke="#fff" style="stroke: var(--color2, #fff)" stroke-linejoin="round"
                stroke-linecap="round" stroke-miterlimit="4" stroke-width="2.6667"
                d="M12 4h8M4 8h24M25.333 8l-0.935 14.026c-0.14 2.104-0.21 3.156-0.665 3.954-0.4 0.702-1.004 1.267-1.731 1.62-0.826 0.4-1.881 0.4-3.99 0.4h-4.025c-2.109 0-3.163 0-3.99-0.4-0.727-0.353-1.331-0.917-1.731-1.62-0.455-0.798-0.525-1.85-0.665-3.954l-0.935-14.026M13.333 14v6.667M18.667 14v6.667">
            </path>
        </symbol>
        <symbol id="icon-burger" viewBox="0 0 32 32">
<path stroke-linejoin="round" stroke-linecap="round" stroke-miterlimit="4" stroke-width="2.2857" d="M22.667 13.333h-18.667"></path>
<path stroke-linejoin="round" stroke-linecap="round" stroke-miterlimit="4" stroke-width="2.2857" d="M28 8h-24"></path>
<path stroke-linejoin="round" stroke-linecap="round" stroke-miterlimit="4" stroke-width="2.2857" d="M28 18.667h-24"></path>
<path stroke-linejoin="round" stroke-linecap="round" stroke-miterlimit="4" stroke-width="2.2857" d="M22.667 24h-18.667"></path>
</symbol>
</defs>
</svg>
